<svg preserveAspectRatio="none" width="100%" height="100%" overflow="visible" style="display: block;" viewBox="0 0 17.9905 17.9905" fill="none" xmlns="http://www.w3.org/2000/svg">
<g id="HugeiconsIcon" clip-path="url(#clip0_103_577)">
<path id="Vector" d="M10.2079 16.0168C9.88286 16.3211 9.44831 16.4913 8.99607 16.4913C8.54384 16.4913 8.10937 16.3211 7.78426 16.0168C4.80723 13.2125 0.817638 10.0799 2.76324 5.53182C3.81521 3.07275 6.34041 1.49921 8.99607 1.49921C11.6518 1.49921 14.177 3.07275 15.229 5.53182C17.1721 10.0742 13.1923 13.2222 10.2079 16.0168Z" stroke="var(--stroke-0, #DC2626)" stroke-width="1.31181"/>
<path id="Vector_2" d="M11.6189 8.24565C11.6189 9.69463 10.4442 10.8693 8.99525 10.8693C7.54627 10.8693 6.37164 9.69463 6.37164 8.24565C6.37164 6.79666 7.54627 5.62203 8.99525 5.62203C10.4442 5.62203 11.6189 6.79666 11.6189 8.24565Z" stroke="var(--stroke-0, #DC2626)" stroke-width="1.31181"/>
</g>
<defs>
<clipPath id="clip0_103_577">
<rect width="17.9905" height="17.9905" fill="white"/>
</clipPath>
</defs>
</svg>
