<svg preserveAspectRatio="none" width="100%" height="100%" overflow="visible" style="display: block;" viewBox="0 0 21.9943 21.9943" fill="none" xmlns="http://www.w3.org/2000/svg">
<g id="HugeiconsIcon">
<path id="Vector" d="M7.33149 10.9971C8.34375 10.9971 9.16435 10.1766 9.16435 9.16429C9.16435 8.15203 8.34375 7.33143 7.33149 7.33143C6.31923 7.33143 5.49863 8.15203 5.49863 9.16429C5.49863 10.1766 6.31923 10.9971 7.33149 10.9971Z" stroke="var(--stroke-0, #68625E)" stroke-width="1.60375" stroke-linecap="round" stroke-linejoin="round"/>
<path id="Vector_2" d="M1.83286 9.16429C1.83286 12.2011 4.29465 14.6629 7.33143 14.6629C8.30157 14.6629 9.21305 14.4116 10.0043 13.9707C12.0871 12.8099 12.8301 11.9136 16.4957 10.9972C18.541 10.4858 20.1614 9.35592 20.1614 7.33143C20.1614 5.30691 18.5202 3.66572 16.4957 3.66572H7.33143C4.29465 3.66572 1.83286 6.12751 1.83286 9.16429Z" stroke="var(--stroke-0, #68625E)" stroke-width="1.60375" stroke-linecap="round" stroke-linejoin="round"/>
<path id="Vector_3" d="M1.83297 9.16429L1.83286 12.83C1.83286 15.8668 4.29465 18.3286 7.33143 18.3286C8.30157 18.3286 9.21305 18.0773 10.0043 17.6364C12.0871 16.4757 12.8301 15.5793 16.4957 14.6629C18.541 14.1515 20.1614 13.0216 20.1614 10.9972V7.33143" stroke="var(--stroke-0, #68625E)" stroke-width="1.60375" stroke-linecap="round" stroke-linejoin="round"/>
</g>
</svg>
