<svg preserveAspectRatio="none" width="100%" height="100%" overflow="visible" style="display: block;" viewBox="0 0 12 12" fill="none" xmlns="http://www.w3.org/2000/svg">
<g id="Vector">
<mask id="path-1-inside-1_103_633" fill="white">
<path d="M3.5 4C3.5 3.86739 3.55268 3.74022 3.64645 3.64645C3.74022 3.55268 3.86739 3.5 4 3.5H8C8.13261 3.5 8.25979 3.55268 8.35355 3.64645C8.44732 3.74022 8.5 3.86739 8.5 4C8.5 4.13261 8.44732 4.25979 8.35355 4.35355C8.25979 4.44732 8.13261 4.5 8 4.5H4C3.86739 4.5 3.74022 4.44732 3.64645 4.35355C3.55268 4.25979 3.5 4.13261 3.5 4ZM4 6.5H8C8.13261 6.5 8.25979 6.44732 8.35355 6.35355C8.44732 6.25979 8.5 6.13261 8.5 6C8.5 5.86739 8.44732 5.74022 8.35355 5.64645C8.25979 5.55268 8.13261 5.5 8 5.5H4C3.86739 5.5 3.74022 5.55268 3.64645 5.64645C3.55268 5.74022 3.5 5.86739 3.5 6C3.5 6.13261 3.55268 6.25979 3.64645 6.35355C3.74022 6.44732 3.86739 6.5 4 6.5ZM6 7.5H4C3.86739 7.5 3.74022 7.55268 3.64645 7.64645C3.55268 7.74022 3.5 7.86739 3.5 8C3.5 8.13261 3.55268 8.25979 3.64645 8.35355C3.74022 8.44732 3.86739 8.5 4 8.5H6C6.13261 8.5 6.25979 8.44732 6.35355 8.35355C6.44732 8.25979 6.5 8.13261 6.5 8C6.5 7.86739 6.44732 7.74022 6.35355 7.64645C6.25979 7.55268 6.13261 7.5 6 7.5ZM12 1V7.79313C12.0004 7.9245 11.9747 8.05464 11.9244 8.17599C11.8741 8.29734 11.8001 8.40748 11.7069 8.5L8.5 11.7069C8.40748 11.8001 8.29734 11.8741 8.17599 11.9244C8.05464 11.9747 7.9245 12.0004 7.79313 12H1C0.734784 12 0.48043 11.8946 0.292893 11.7071C0.105357 11.5196 0 11.2652 0 11V1C0 0.734784 0.105357 0.48043 0.292893 0.292893C0.48043 0.105357 0.734784 0 1 0H11C11.2652 0 11.5196 0.105357 11.7071 0.292893C11.8946 0.48043 12 0.734784 12 1ZM1 11H7.5V8C7.5 7.86739 7.55268 7.74022 7.64645 7.64645C7.74022 7.55268 7.86739 7.5 8 7.5H11V1H1V11ZM8.5 8.5V10.2938L10.2931 8.5H8.5Z"/>
</mask>
<path d="M12 7.79313H10.6667L10.6667 7.79739L12 7.79313ZM11.7069 8.5L10.7678 7.55343L10.7641 7.55719L11.7069 8.5ZM8.5 11.7069L7.55718 10.7641L7.55344 10.7678L8.5 11.7069ZM7.79313 12L7.79739 10.6667H7.79313V12ZM0 11H-1.33333H0ZM1 0V-1.33333V0ZM11 0V-1.33333V0ZM1 11H-0.333333V12.3333H1V11ZM7.5 11V12.3333H8.83333V11H7.5ZM11 7.5V8.83333H12.3333V7.5H11ZM11 1H12.3333V-0.333333H11V1ZM1 1V-0.333333H-0.333333V1H1ZM8.5 8.5V7.16667H7.16667V8.5H8.5ZM8.5 10.2938H7.16667V13.5135L9.44297 11.2364L8.5 10.2938ZM10.2931 8.5L11.2361 9.44265L13.5113 7.16667H10.2931V8.5ZM3.5 4H4.83333C4.83333 4.22101 4.74554 4.43298 4.58926 4.58926L3.64645 3.64645L2.70364 2.70364C2.35982 3.04745 2.16667 3.51377 2.16667 4H3.5ZM3.64645 3.64645L4.58926 4.58926C4.43298 4.74554 4.22101 4.83333 4 4.83333V3.5V2.16667C3.51377 2.16667 3.04745 2.35982 2.70364 2.70364L3.64645 3.64645ZM4 3.5V4.83333H8V3.5V2.16667H4V3.5ZM8 3.5V4.83333C7.77899 4.83333 7.56703 4.74554 7.41075 4.58926L8.35355 3.64645L9.29636 2.70364C8.95255 2.35982 8.48623 2.16667 8 2.16667V3.5ZM8.35355 3.64645L7.41075 4.58926C7.25446 4.43297 7.16667 4.22101 7.16667 4H8.5H9.83333C9.83333 3.51377 9.64018 3.04746 9.29636 2.70364L8.35355 3.64645ZM8.5 4H7.16667C7.16667 3.77899 7.25446 3.56703 7.41075 3.41074L8.35355 4.35355L9.29636 5.29636C9.64018 4.95254 9.83333 4.48623 9.83333 4H8.5ZM8.35355 4.35355L7.41075 3.41074C7.56703 3.25446 7.77899 3.16667 8 3.16667V4.5V5.83333C8.48623 5.83333 8.95255 5.64018 9.29636 5.29636L8.35355 4.35355ZM8 4.5V3.16667H4V4.5V5.83333H8V4.5ZM4 4.5V3.16667C4.22101 3.16667 4.43298 3.25447 4.58926 3.41074L3.64645 4.35355L2.70364 5.29636C3.04745 5.64018 3.51377 5.83333 4 5.83333V4.5ZM3.64645 4.35355L4.58926 3.41074C4.74554 3.56702 4.83333 3.77899 4.83333 4H3.5H2.16667C2.16667 4.48623 2.35982 4.95255 2.70364 5.29636L3.64645 4.35355ZM4 6.5V7.83333H8V6.5V5.16667H4V6.5ZM8 6.5V7.83333C8.48623 7.83333 8.95254 7.64018 9.29636 7.29636L8.35355 6.35355L7.41075 5.41075C7.56703 5.25446 7.77899 5.16667 8 5.16667V6.5ZM8.35355 6.35355L9.29636 7.29636C9.64018 6.95254 9.83333 6.48623 9.83333 6H8.5H7.16667C7.16667 5.77899 7.25446 5.56703 7.41075 5.41075L8.35355 6.35355ZM8.5 6H9.83333C9.83333 5.51377 9.64018 5.04746 9.29636 4.70364L8.35355 5.64645L7.41075 6.58926C7.25446 6.43297 7.16667 6.22101 7.16667 6H8.5ZM8.35355 5.64645L9.29636 4.70364C8.95255 4.35982 8.48623 4.16667 8 4.16667V5.5V6.83333C7.77899 6.83333 7.56703 6.74554 7.41075 6.58926L8.35355 5.64645ZM8 5.5V4.16667H4V5.5V6.83333H8V5.5ZM4 5.5V4.16667C3.51377 4.16667 3.04745 4.35982 2.70364 4.70364L3.64645 5.64645L4.58926 6.58926C4.43298 6.74554 4.22101 6.83333 4 6.83333V5.5ZM3.64645 5.64645L2.70364 4.70364C2.35982 5.04745 2.16667 5.51377 2.16667 6H3.5H4.83333C4.83333 6.22102 4.74554 6.43298 4.58926 6.58926L3.64645 5.64645ZM3.5 6H2.16667C2.16667 6.48623 2.35982 6.95255 2.70364 7.29636L3.64645 6.35355L4.58926 5.41075C4.74554 5.56703 4.83333 5.77899 4.83333 6H3.5ZM3.64645 6.35355L2.70364 7.29636C3.04746 7.64018 3.51377 7.83333 4 7.83333V6.5V5.16667C4.22101 5.16667 4.43297 5.25446 4.58926 5.41075L3.64645 6.35355ZM6 7.5V6.16667H4V7.5V8.83333H6V7.5ZM4 7.5V6.16667C3.51377 6.16667 3.04746 6.35982 2.70364 6.70364L3.64645 7.64645L4.58926 8.58926C4.43297 8.74554 4.22101 8.83333 4 8.83333V7.5ZM3.64645 7.64645L2.70364 6.70364C2.35982 7.04746 2.16667 7.51377 2.16667 8H3.5H4.83333C4.83333 8.22101 4.74554 8.43298 4.58926 8.58926L3.64645 7.64645ZM3.5 8H2.16667C2.16667 8.48623 2.35982 8.95255 2.70364 9.29636L3.64645 8.35355L4.58926 7.41075C4.74554 7.56703 4.83333 7.77899 4.83333 8H3.5ZM3.64645 8.35355L2.70364 9.29636C3.04746 9.64018 3.51377 9.83333 4 9.83333V8.5V7.16667C4.22101 7.16667 4.43297 7.25446 4.58926 7.41075L3.64645 8.35355ZM4 8.5V9.83333H6V8.5V7.16667H4V8.5ZM6 8.5V9.83333C6.48623 9.83333 6.95254 9.64018 7.29636 9.29636L6.35355 8.35355L5.41075 7.41075C5.56703 7.25446 5.77899 7.16667 6 7.16667V8.5ZM6.35355 8.35355L7.29636 9.29636C7.64018 8.95254 7.83333 8.48623 7.83333 8H6.5H5.16667C5.16667 7.77899 5.25446 7.56703 5.41075 7.41075L6.35355 8.35355ZM6.5 8H7.83333C7.83333 7.51377 7.64018 7.04746 7.29636 6.70364L6.35355 7.64645L5.41075 8.58926C5.25446 8.43297 5.16667 8.22101 5.16667 8H6.5ZM6.35355 7.64645L7.29636 6.70364C6.95254 6.35982 6.48623 6.16667 6 6.16667V7.5V8.83333C5.77899 8.83333 5.56703 8.74554 5.41075 8.58926L6.35355 7.64645ZM12 1H10.6667V7.79313H12H13.3333V1H12ZM12 7.79313L10.6667 7.79739C10.6665 7.75205 10.6754 7.70714 10.6928 7.66526L11.9244 8.17599L13.156 8.68672C13.274 8.40214 13.3343 8.09694 13.3333 7.78887L12 7.79313ZM11.9244 8.17599L10.6928 7.66526C10.7101 7.62338 10.7356 7.58537 10.7678 7.55344L11.7069 8.5L12.6459 9.44656C12.8646 9.22959 13.038 8.9713 13.156 8.68672L11.9244 8.17599ZM11.7069 8.5L10.7641 7.55719L7.55719 10.7641L8.5 11.7069L9.44281 12.6497L12.6497 9.44281L11.7069 8.5ZM8.5 11.7069L7.55344 10.7678C7.58537 10.7356 7.62338 10.7101 7.66526 10.6928L8.17599 11.9244L8.68672 13.156C8.9713 13.038 9.22959 12.8646 9.44656 12.6459L8.5 11.7069ZM8.17599 11.9244L7.66526 10.6928C7.70714 10.6754 7.75205 10.6665 7.79739 10.6667L7.79313 12L7.78887 13.3333C8.09694 13.3343 8.40214 13.274 8.68672 13.156L8.17599 11.9244ZM7.79313 12V10.6667H1V12V13.3333H7.79313V12ZM1 12V10.6667C1.08841 10.6667 1.17319 10.7018 1.2357 10.7643L0.292893 11.7071L-0.649916 12.6499C-0.212331 13.0875 0.381161 13.3333 1 13.3333V12ZM0.292893 11.7071L1.2357 10.7643C1.29821 10.8268 1.33333 10.9116 1.33333 11H0H-1.33333C-1.33333 11.6188 -1.0875 12.2123 -0.649916 12.6499L0.292893 11.7071ZM0 11H1.33333V1H0H-1.33333V11H0ZM0 1H1.33333C1.33333 1.08841 1.29821 1.17319 1.2357 1.2357L0.292893 0.292893L-0.649916 -0.649916C-1.0875 -0.212331 -1.33333 0.381162 -1.33333 1H0ZM0.292893 0.292893L1.2357 1.2357C1.17319 1.29821 1.08841 1.33333 1 1.33333V0V-1.33333C0.381162 -1.33333 -0.212331 -1.0875 -0.649916 -0.649916L0.292893 0.292893ZM1 0V1.33333H11V0V-1.33333H1V0ZM11 0V1.33333C10.9116 1.33333 10.8268 1.29821 10.7643 1.2357L11.7071 0.292893L12.6499 -0.649916C12.2123 -1.0875 11.6188 -1.33333 11 -1.33333V0ZM11.7071 0.292893L10.7643 1.2357C10.7018 1.17319 10.6667 1.08841 10.6667 1H12H13.3333C13.3333 0.381161 13.0875 -0.212331 12.6499 -0.649916L11.7071 0.292893ZM1 11V12.3333H7.5V11V9.66667H1V11ZM7.5 11H8.83333V8H7.5H6.16667V11H7.5ZM7.5 8H8.83333C8.83333 8.22101 8.74554 8.43297 8.58926 8.58926L7.64645 7.64645L6.70364 6.70364C6.35982 7.04746 6.16667 7.51377 6.16667 8H7.5ZM7.64645 7.64645L8.58926 8.58926C8.43297 8.74554 8.22101 8.83333 8 8.83333V7.5V6.16667C7.51377 6.16667 7.04746 6.35982 6.70364 6.70364L7.64645 7.64645ZM8 7.5V8.83333H11V7.5V6.16667H8V7.5ZM11 7.5H12.3333V1H11H9.66667V7.5H11ZM11 1V-0.333333H1V1V2.33333H11V1ZM1 1H-0.333333V11H1H2.33333V1H1ZM8.5 8.5H7.16667V10.2938H8.5H9.83333V8.5H8.5ZM8.5 10.2938L9.44297 11.2364L11.2361 9.44265L10.2931 8.5L9.35015 7.55736L7.55703 9.35111L8.5 10.2938ZM10.2931 8.5V7.16667H8.5V8.5V9.83333H10.2931V8.5Z" fill="var(--stroke-0, #68625E)" mask="url(#path-1-inside-1_103_633)"/>
</g>
</svg>
