<svg preserveAspectRatio="none" width="100%" height="100%" overflow="visible" style="display: block;" viewBox="0 0 236.172 77.8121" fill="none" xmlns="http://www.w3.org/2000/svg">
<g id="image 3 [Vectorized]" clip-path="url(#clip0_116_736)">
<path id="Vector" d="M86.1703 38.1431C90.2363 38.0708 94.3292 38.1658 98.3878 38.1128C104.013 38.0393 108.38 37.8998 113.653 40.2951C116.672 41.6626 119.028 44.1658 120.211 47.2605C121.351 50.326 121.262 55.7776 119.871 58.7874C118.287 62.2166 115.401 64.2217 111.954 65.5122C112.842 66.1737 115.486 69.6762 116.293 70.6768C117.867 72.6259 119.646 74.7677 121.141 76.7745L121.04 76.9406C120.548 77.1357 120.015 77.096 119.48 77.0994L112.377 77.1077C110.962 77.1088 109.144 77.1662 107.78 76.9785C106.32 74.8462 104.325 72.3961 102.753 70.315C101.971 69.2796 101.148 68.1147 100.268 67.178C99.7103 66.5834 98.067 66.733 97.2091 66.7382C97.29 70.1367 97.1944 73.6363 97.2606 77.0708C93.5633 77.1009 89.8657 77.1077 86.1683 77.0915C86.514 67.2116 86.0727 57.1157 86.2428 47.2121C86.2931 44.2772 86.3064 41.0672 86.1703 38.1431ZM97.2199 56.5799C100.718 56.2565 105.553 57.0185 109.016 55.5745C109.919 54.554 110.156 53.6119 110.099 52.257C109.882 47.0628 100.81 48.7936 97.2002 48.5083C97.2277 51.1987 97.2343 53.8893 97.2199 56.5799Z" fill="var(--fill-0, #224096)"/>
<path id="Vector_2" d="M3.23668 38.1376C6.60614 38.0155 10.5278 38.1249 13.9614 38.1032C13.9597 39.8062 13.7568 51.3024 14.3156 51.6778C14.9661 52.1148 25.7919 51.9256 27.1368 51.8541C27.0837 48.2795 27.1635 44.6905 27.1257 41.1143C27.1155 40.1458 27.1339 39.2066 27.0473 38.2388C27.4252 38.0198 36.9195 38.1149 38.1529 38.1127L38.1149 62.2409C38.1159 66.9129 37.9807 72.4729 38.1656 77.0702C34.6207 77.1155 30.5807 76.9779 27.1296 77.1102C27.1165 72.2208 27.1901 67.145 27.1067 62.2711C24.5536 62.2121 21.9996 62.1935 19.4459 62.2152C17.9838 62.2153 15.5948 62.1582 14.1868 62.3203C14.146 62.3482 14.147 62.344 14.1106 62.3897C13.7383 62.8579 13.9572 75.3146 14.0406 77.0774C12.0162 77.1436 9.80884 77.0748 7.76393 77.109C6.76331 77.1257 4.34995 77.169 3.4537 77.0458C3.17317 76.666 3.2999 69.772 3.3002 68.6769L3.3021 49.499C3.30308 45.8197 3.39614 41.7772 3.23668 38.1376Z" fill="var(--fill-0, #224096)"/>
<path id="Vector_3" d="M125.087 38.1391C135.131 37.9455 145.261 38.2344 155.313 38.1261C155.692 38.122 156.266 38.2031 156.62 38.3457C156.688 39.3789 156.373 41.0269 156.312 42.1138C156.194 44.2233 156.168 46.349 156.003 48.4511C154.009 48.6204 150.633 48.52 148.501 48.5181H136.098C136.115 49.6851 136.155 50.947 136.094 52.1037C140.375 51.9788 145.11 52.1123 149.464 52.0768C149.42 54.4644 149.058 56.4812 148.761 58.8348C148.634 59.8467 148.638 61.3232 148.629 62.364C144.482 62.3271 140.233 62.423 136.1 62.3291L136.121 63.95C136.139 64.9232 136.136 65.8967 136.111 66.8697C137.098 66.8053 138.201 66.8026 139.19 66.8196C145.097 66.9202 151.089 66.6765 156.985 66.8304C156.953 68.7994 156.402 70.8284 156.309 72.8059C156.242 74.2253 156.196 75.6448 156.142 77.0646C152.508 77.1657 148.571 77.0961 144.918 77.096L125.095 77.0985C125.281 66.9364 125.037 56.7164 125.137 46.5489C125.163 43.7692 125.166 40.9161 125.087 38.1391Z" fill="var(--fill-0, #224096)"/>
<path id="Vector_4" d="M220.615 37.9963L220.645 38.0019C221.197 38.3299 233.3 73.0673 234.87 77.095C231.447 77.0976 226.15 77.2605 222.905 77.0143C222.533 75.4951 221.751 73.4449 221.55 71.9868C218.294 71.7061 212.287 71.8094 208.928 71.91C207.801 71.7997 206.913 75.9628 206.379 77.0402C204.699 77.183 202.178 77.096 200.43 77.1036C198.74 77.1109 196.246 77.175 194.619 77.0272C195.271 74.5054 196.846 70.9199 197.749 68.3638L205.396 46.821C206.226 44.4653 207.734 41.0749 208.245 38.7898C211.851 38.1359 216.876 38.3536 220.615 37.9963ZM211.924 61.2264C212.971 61.2131 214.054 61.1839 215.097 61.1874C216.01 61.1715 216.755 61.1502 217.664 61.0674C216.973 59.2937 216.386 57.4348 215.713 55.6474C215.475 55.0131 215.327 53.0093 214.919 52.7398C214.434 53.5595 212.171 60.1523 211.924 61.2264Z" fill="var(--fill-0, #224096)"/>
<path id="Vector_5" d="M52.6181 7.63364C53.4536 7.59383 54.2899 7.57179 55.1263 7.56752C58.9886 7.56919 62.2137 9.28529 63.7086 12.9778C64.6643 15.3382 64.6508 16.9506 64.6456 19.4309C63.6295 20.4389 61.4068 20.1192 60.0069 20.0953C58.0256 20.0752 56.0442 20.0703 54.0627 20.0806C53.4277 20.0839 50.8791 19.9653 50.5447 20.382C50.6337 20.6635 50.941 20.915 51.1595 21.0889C53.6359 23.0598 57.7839 22.0572 60.605 21.5745C61.1113 21.4878 61.5967 21.4901 61.9958 21.8177C62.3553 22.8226 62.6323 23.8669 62.9391 24.8838C63.4297 26.4522 62.3962 26.6252 61.1415 26.8774C54.1648 28.2794 45.6417 27.6726 44.0176 19.1241C43.5789 16.8151 44.2242 14.0383 45.4882 12.0357C47.1375 9.42255 49.6719 8.22858 52.6181 7.63364ZM55.1798 15.4527C56.1441 15.4647 57.4778 15.5536 58.4255 15.3458C58.6226 15.3026 58.6778 15.0472 58.6808 14.8605C58.6903 14.4273 58.5162 14.0103 58.2014 13.7126C57.3721 12.913 55.7377 12.7374 54.6457 12.7754C54.4289 12.7811 54.2124 12.7988 53.9975 12.8284C52.9727 13.0106 50.2499 13.8186 50.3242 15.0762C50.8486 15.7068 54.216 15.4439 55.1798 15.4527Z" fill="var(--fill-0, #E74D26)"/>
<path id="Vector_6" d="M20.1327 0.698084C21.9627 0.725078 23.8531 0.631671 25.6641 0.71256C25.8265 2.96696 25.614 6.30661 25.6582 8.69664C31.6145 6.20825 39.8429 7.26604 41.3167 14.7226C41.4519 15.4016 41.5406 16.0891 41.5823 16.7802C41.6368 17.8355 41.6893 26.5247 41.3559 27.0219C40.5489 27.4388 37.08 27.3073 36.1002 27.1936C35.8896 25.8524 35.9907 20.9675 35.9937 19.3687C35.9862 16.2402 36.4798 13.4942 32.5047 12.8759C30.0218 12.4896 27.9977 13.1163 25.6471 13.7422C25.8123 17.9311 25.6716 22.8302 25.7127 27.1181C24.6436 27.3536 21.3272 27.2912 20.1748 27.182C20.0798 26.3703 20.1375 24.5601 20.1402 23.6559L20.1549 17.0358L20.1513 6.16914C20.1471 4.40562 20.0687 2.43324 20.1327 0.698084Z" fill="var(--fill-0, #E74D26)"/>
<path id="Vector_7" d="M7.03483 3.49349C7.65898 3.41359 8.39586 3.4204 9.03314 3.40985C9.07698 4.70805 9.11971 6.65281 9.01981 7.90565C11.4496 7.65269 14.2624 8.09301 16.7166 7.69068C16.7218 8.76606 16.8924 12.2171 16.307 12.8979C15.5231 13.2476 10.2363 13.1402 9.00117 13.1136C9.19283 15.4187 8.955 17.8721 8.9987 20.1879C9.01631 21.1217 9.5262 21.9202 10.4923 22.0723C12.4856 22.3864 14.7152 22.2234 16.7209 22.0343C17.0402 23.413 17.2562 23.7103 17.2981 25.2169L17.3113 27.0537C14.0179 27.6441 8.14764 27.9971 5.51727 25.5464C3.25121 23.4353 3.51681 20.3492 3.52376 17.5126C3.52618 16.061 3.50825 14.6095 3.46998 13.1585C2.79044 13.1432 1.17549 13.2778 0.726381 12.9018C0.600691 12.1473 0.637017 9.01118 0.87386 8.25861C1.44872 7.77274 2.07609 7.94435 2.7684 7.93506C4.93841 7.90593 4.37645 4.56861 5.89099 3.72033C6.067 3.62174 6.80325 3.52586 7.03483 3.49349Z" fill="var(--fill-0, #E74D26)"/>
<path id="Vector_8" d="M2.53703 37.8109C3.92215 37.8114 13.9334 37.6934 14.474 37.9038L14.176 37.988C14.3257 38.2788 14.3212 37.9156 14.691 38.2817L14.7 46.7811C14.7017 47.653 14.7064 48.7292 14.7119 49.6204C14.6186 49.7472 14.5398 49.8543 14.4756 49.9415C14.7412 50.2941 14.6896 50.676 14.9554 51.1093C15.665 51.2545 18.0684 51.1941 18.8965 51.1932L26.8692 51.1831L26.8695 42.0321C26.8692 41.3051 26.8086 38.6083 26.9311 38.036L27.0474 38.2388C27.134 39.2066 27.1155 40.1459 27.1258 41.1143C27.1635 44.6905 27.0837 48.2795 27.1368 51.8541C25.7919 51.9256 14.9661 52.1149 14.3156 51.6778C13.7568 51.3024 13.9598 39.8062 13.9614 38.1033C10.5279 38.1249 6.60616 38.0155 3.2367 38.1376C3.39616 41.7773 3.3031 45.8197 3.30212 49.499L3.30023 68.677C3.29993 69.772 3.17319 76.666 3.45373 77.0459C4.34997 77.169 6.76333 77.1257 7.76395 77.109C9.80886 77.0748 12.0162 77.1436 14.0406 77.0774C13.9572 75.3146 13.7384 62.8579 14.1106 62.3897C14.147 62.344 14.146 62.3482 14.1868 62.3203C15.0869 63.7996 14.5385 72.4366 14.7239 74.8476C14.7605 75.3246 14.7331 76.7844 14.3753 77.1456C13.2225 77.4937 4.36723 77.3497 2.53703 77.3452V37.8109Z" fill="var(--fill-0, #224096)" fill-opacity="0.0117647"/>
<path id="Vector_9" d="M62.2255 77.8121C61.7822 77.6953 61.3596 77.472 61.011 77.4117C59.2144 77.1016 57.2939 77.0698 55.5094 76.7106C50.4589 75.7086 46.083 72.5848 43.4958 68.1347C40.8134 63.5223 40.5442 56.4759 41.8053 51.4075C42.9023 46.9988 45.9354 42.9773 49.9039 40.8117C54.1719 38.4827 58.1989 37.8298 62.9784 37.9946C65.9714 38.0979 66.9493 37.9287 69.979 38.735C74.9668 40.0623 79.0575 42.4839 81.6074 47.0879C84.4003 52.1305 84.7838 59.0843 83.1331 64.5613C81.9162 69.0683 79.1133 72.4742 75.0168 74.713C73.2917 75.6558 71.6854 76.1362 69.8015 76.7058C68.6816 77.0443 63.7296 77.0858 63.2662 77.8121H62.2255ZM64.5828 66.9575C70.8183 66.4227 73.764 62.0506 73.096 56.0684C72.87 54.0447 71.9186 52.1055 70.3109 50.7443C67.2071 48.406 64.7003 48.1981 61.0812 48.3412C54.1031 49.1636 51.4149 53.1416 52.1958 59.7686C52.4531 61.952 53.4999 63.6955 55.2482 65.0832C58.1226 67.1773 61.2669 67.0012 64.5828 66.9575Z" fill="var(--fill-0, #224096)"/>
<path id="Vector_10" d="M179.262 77.8121C176.581 77.1633 174.404 77.1995 171.869 76.7625C166.902 75.8576 162.553 72.8933 159.895 68.6036C156.893 63.6768 156.727 56.2166 158.084 50.912C160.497 41.4765 170.367 37.3988 179.344 37.9936C182.947 38.2322 186.133 37.9992 189.706 39.1863C190.606 39.4417 192.198 39.7296 192.889 40.3299C193.137 40.9153 192.706 41.0074 192.544 41.5036C191.69 44.1373 190.954 46.8347 190.145 49.4791C190.105 50.1119 188.859 49.8367 188.337 49.7082C181.44 48.0111 169.237 46.2493 168.179 56.3174C167.01 67.4661 177.661 67.9922 185.622 66.2437C187.332 65.8679 189.229 65.518 190.727 64.6464C191.238 65.788 194.377 73.8525 194.159 74.4189C194.031 74.7509 193.508 74.9879 193.192 75.1055C190.452 76.1243 187.588 76.7748 184.676 77.04C183.398 77.1593 182.085 77.1941 180.813 77.337C180.399 77.3836 180.237 77.4831 180.01 77.8121H179.262Z" fill="var(--fill-0, #224096)"/>
</g>
<defs>
<clipPath id="clip0_116_736">
<rect width="236.172" height="77.8121" fill="white"/>
</clipPath>
</defs>
</svg>
